# xmcd CD database file
#
# Track frame offsets:
#	150
#	14708
#	29235
#	42224
#	54431
#	67871
#	81191
#	94613
#	108717
#	122139
#
# Disc length: 1791 seconds
#
# Revision: 0
# Processed by: cddbd v1.5.2PL0 Copyright (c) Steve Scherf et al.
# Submitted via: CDex 1.51
#
DISCID=8606fd0a
DTITLE=John Lee Hooker - Boogie Chillen
DYEAR=2004
DGENRE=Blues
TTITLE0=Boogie Chillen
TTITLE1=Crawling King Snake
TTITLE2=I'm In The Mood
TTITLE3=Blues Before Sunrise
TTITLE4=Little Wheel
TTITLE5=Maudie
TTITLE6=My First Wife Left Me
TTITLE7=Sally Mae
TTITLE8=She Was In Chicago
TTITLE9=Weeping Willow Boogie
EXTD=YEAR: 2004
EXTT0=
EXTT1=
EXTT2=
EXTT3=
EXTT4=
EXTT5=
EXTT6=
EXTT7=
EXTT8=
EXTT9=
PLAYORDER=
